<?xml version="1.0" encoding="UTF-8" standalone="no"?>
<svg
   width="48.722252mm"
   height="6.4534054mm"
   viewBox="0 0 48.722252 6.4534055"
   version="1.1"
   id="svg884"
   inkscape:version="1.2.2 (b0a8486541, 2022-12-01)"
   sodipodi:docname="confidetial.svg"
   xmlns:inkscape="http://www.inkscape.org/namespaces/inkscape"
   xmlns:sodipodi="http://sodipodi.sourceforge.net/DTD/sodipodi-0.dtd"
   xmlns="http://www.w3.org/2000/svg"
   xmlns:svg="http://www.w3.org/2000/svg"
   xmlns:rdf="http://www.w3.org/1999/02/22-rdf-syntax-ns#"
   xmlns:cc="http://creativecommons.org/ns#"
   xmlns:dc="http://purl.org/dc/elements/1.1/">
  <defs
     id="defs878">
    <rect
       x="-19.060181"
       y="-45.413284"
       width="271.78784"
       height="116.92299"
       id="rect1043" />
  </defs>
  <sodipodi:namedview
     id="base"
     pagecolor="#ffffff"
     bordercolor="#666666"
     borderopacity="1.0"
     inkscape:pageopacity="0.0"
     inkscape:pageshadow="2"
     inkscape:zoom="2.82"
     inkscape:cx="226.95035"
     inkscape:cy="-8.1560284"
     inkscape:document-units="mm"
     inkscape:current-layer="text1433"
     showgrid="false"
     inkscape:window-width="1916"
     inkscape:window-height="510"
     inkscape:window-x="1366"
     inkscape:window-y="530"
     inkscape:window-maximized="0"
     inkscape:document-rotation="0"
     inkscape:showpageshadow="2"
     inkscape:pagecheckerboard="0"
     inkscape:deskcolor="#d1d1d1" />
  <metadata
     id="metadata881">
    <rdf:RDF>
      <cc:Work
         rdf:about="">
        <dc:format>image/svg+xml</dc:format>
        <dc:type
           rdf:resource="http://purl.org/dc/dcmitype/StillImage" />
        <dc:title />
      </cc:Work>
    </rdf:RDF>
  </metadata>
  <g
     inkscape:label="レイヤー 1"
     inkscape:groupmode="layer"
     id="layer1"
     transform="translate(-14.107599,-84.987892)">
    <g
       aria-label="Internal use only"
       id="text1433"
       style="font-weight:bold;font-size:6.35px;line-height:125%;font-family:'M+ 1p';-inkscape-font-specification:'M+ 1p, Bold';letter-spacing:0px;word-spacing:0px;fill:#ff0000;stroke-width:0.264583px">
      <g
         id="g4793">
        <g
           aria-label="Confidential"
           id="text282"
           style="font-style:italic;font-size:7.05556px;line-height:1.25;font-family:sans-serif;-inkscape-font-specification:'sans-serif, Bold Italic';font-variant-ligatures:none;text-align:center;text-anchor:middle;stroke-width:0.0700042px;stop-color:#000000">
          <path
             d="m 17.75804,86.506532 c 0.592557,0 1.016304,0.196371 1.388374,0.485759 l 0.206706,-1.064535 c -0.506429,-0.292833 -1.040419,-0.382406 -1.515843,-0.382406 -2.321996,0 -3.369305,1.794896 -3.369305,3.314184 0,1.264351 0.847494,2.022272 2.332331,2.022272 0.633898,0 1.188558,-0.158474 1.663982,-0.382406 l 0.206706,-1.064535 c -0.434083,0.261828 -0.940512,0.485759 -1.57441,0.485759 -0.813043,0 -1.24368,-0.465088 -1.24368,-1.226455 0,-0.726915 0.416857,-2.187637 1.905139,-2.187637 z"
             id="path284" />
          <path
             d="m 21.440849,89.999861 c -0.471978,0 -0.661458,-0.296278 -0.661458,-0.737251 0,-0.475423 0.223931,-1.550294 1.105876,-1.550294 0.465088,0 0.654568,0.296279 0.654568,0.737251 0,0.465089 -0.220486,1.550294 -1.098986,1.550294 z m -1.95337,-0.637343 c 0,0.968073 0.637343,1.519288 1.781115,1.519288 2.049834,0 2.563153,-1.674317 2.563153,-2.535592 0,-0.964627 -0.633898,-1.515843 -1.774225,-1.515843 -1.898249,0 -2.570043,1.471057 -2.570043,2.532147 z"
             id="path286" />
          <path
             d="m 27.586903,86.830371 c -0.513319,0 -0.961182,0.217042 -1.41249,0.658014 l 0.110244,-0.564996 h -1.233345 l -0.751032,3.858509 h 1.233345 l 0.368626,-1.898248 c 0.124023,-0.637343 0.475423,-1.123102 1.043864,-1.123102 0.33762,0 0.447863,0.16881 0.447863,0.471978 0,0.196371 -0.04823,0.447863 -0.106798,0.751031 l -0.347955,1.798341 h 1.240235 l 0.458198,-2.349556 c 0.03445,-0.186035 0.05512,-0.35829 0.05512,-0.51332 0,-0.682129 -0.34451,-1.088651 -1.105877,-1.088651 z"
             id="path288" />
          <path
             d="m 30.28097,86.654671 -0.05168,0.268718 h -0.613227 l -0.172255,0.881945 h 0.613227 l -0.578776,2.976564 h 1.233345 l 0.578776,-2.976564 h 1.0542 l 0.172255,-0.881945 h -1.0542 l 0.05168,-0.268718 c 0.05857,-0.306613 0.199816,-0.423747 0.551216,-0.423747 h 0.682129 l 0.15503,-0.809598 h -0.943957 c -0.916396,0 -1.505508,0.34451 -1.677763,1.233345 z"
             id="path290" />
          <path
             d="m 33.143847,86.923389 -0.751032,3.858509 h 1.233345 l 0.751032,-3.858509 z m 0.289388,-1.502063 -0.192926,1.005969 h 1.233345 l 0.192926,-1.005969 z"
             id="path292" />
          <path
             d="m 34.856061,89.41075 c 0,0.8785 0.471978,1.471056 1.288466,1.471056 0.630453,0 1.057645,-0.292833 1.39871,-0.658013 l -0.106798,0.558105 h 1.240235 l 1.040419,-5.360572 h -1.240235 l -0.399631,2.067059 c -0.206706,-0.36518 -0.523655,-0.658014 -1.143773,-0.658014 -1.260905,0 -2.077393,1.364259 -2.077393,2.580379 z m 2.359891,-1.684653 c 0.458198,0 0.640789,0.289388 0.640789,0.720025 0,0.471979 -0.217042,1.539959 -1.078316,1.539959 -0.272163,0 -0.633898,-0.110243 -0.633898,-0.71658 0,-0.468534 0.213596,-1.543404 1.071425,-1.543404 z"
             id="path294" />
          <path
             d="m 39.896238,89.362518 c 0,0.988743 0.678684,1.519288 1.863797,1.519288 0.699355,0 1.333253,-0.165364 1.815567,-0.334174 l 0.186035,-0.950847 c -0.440972,0.217041 -1.071425,0.465088 -1.725994,0.465088 -0.754476,0 -0.902615,-0.396186 -0.902615,-0.740696 0,-0.04479 0.0034,-0.08613 0.0069,-0.127469 h 2.883547 l 0.06546,-0.3514 c 0.03445,-0.175699 0.05168,-0.341064 0.05168,-0.492648 0,-0.954293 -0.630453,-1.519289 -1.660537,-1.519289 -1.832792,0 -2.583823,1.388375 -2.583823,2.532147 z m 3.00757,-0.930176 h -1.601971 c 0.158475,-0.475424 0.50643,-0.782037 1.012859,-0.782037 0.382406,0 0.606337,0.227376 0.606337,0.592556 0,0.05857 -0.0034,0.124024 -0.01723,0.189481 z"
             id="path296" />
          <path
             d="m 47.93365,86.830371 c -0.51332,0 -0.961182,0.217042 -1.41249,0.658014 l 0.110243,-0.564996 h -1.233345 l -0.751031,3.858509 h 1.233345 l 0.368625,-1.898248 c 0.124024,-0.637343 0.475424,-1.123102 1.043865,-1.123102 0.337619,0 0.447862,0.16881 0.447862,0.471978 0,0.196371 -0.04823,0.447863 -0.106798,0.751031 l -0.347954,1.798341 h 1.240235 l 0.458198,-2.349556 c 0.03445,-0.186035 0.05512,-0.35829 0.05512,-0.51332 0,-0.682129 -0.344509,-1.088651 -1.105875,-1.088651 z"
             id="path298" />
          <path
             d="m 51.123813,90.781898 h 1.057645 l 0.172255,-0.881945 h -0.633898 c -0.33073,0 -0.461643,-0.06546 -0.461643,-0.279052 0,-0.05168 0.0069,-0.110244 0.02067,-0.179146 l 0.316949,-1.636421 h 1.271241 l 0.172255,-0.881945 h -1.271241 l 0.213596,-1.095541 h -1.233345 l -0.213596,1.095541 h -0.613227 l -0.172255,0.881945 h 0.613227 l -0.316949,1.636421 c -0.03445,0.182591 -0.05512,0.341065 -0.05512,0.482314 0,0.620118 0.35829,0.857829 1.133436,0.857829 z"
             id="path300" />
          <path
             d="m 53.793762,86.923389 -0.751031,3.858509 h 1.233345 l 0.751031,-3.858509 z m 0.289389,-1.502063 -0.192926,1.005969 h 1.233345 l 0.192925,-1.005969 z"
             id="path302" />
          <path
             d="m 57.528247,89.045569 h 0.640788 l -0.02756,0.141249 c -0.09991,0.509875 -0.5271,0.875055 -0.992188,0.875055 -0.310059,0 -0.506429,-0.130914 -0.506429,-0.385851 0,-0.251492 0.141249,-0.630453 0.88539,-0.630453 z m 0.344509,-2.215198 c -0.437527,0 -0.985298,0.04479 -1.632976,0.196371 l -0.18259,0.940512 c 0.409967,-0.199816 0.8785,-0.316949 1.433161,-0.316949 0.640788,0 0.854384,0.172255 0.854384,0.440972 0,0.04134 -0.0069,0.08268 -0.01378,0.124024 l -0.02067,0.09646 h -0.726916 c -1.488282,0 -2.032607,0.523655 -2.187637,1.312583 -0.01722,0.09646 -0.02756,0.186035 -0.02756,0.272162 0,0.599447 0.427193,0.985298 1.129992,0.985298 0.671794,0 1.085206,-0.272162 1.443496,-0.671794 l -0.110243,0.571886 h 1.243681 l 0.427192,-2.201417 c 0.0379,-0.199816 0.05857,-0.378961 0.05857,-0.54088 0,-0.88539 -0.582221,-1.20923 -1.688098,-1.20923 z"
             id="path304" />
          <path
             d="m 61.262735,85.421326 -1.04042,5.360572 h 1.233345 l 1.04042,-5.360572 z"
             id="path306" />
        </g>
        <rect
           style="opacity:1;fill:none;stroke:#ff0000;stroke-width:0.25;stroke-linejoin:round;stroke-dasharray:none"
           id="rect125"
           width="48.472252"
           height="6.2034054"
           x="14.232599"
           y="85.112892" />
      </g>
    </g>
    <text
       xml:space="preserve"
       transform="matrix(0.26458333,0,0,0.26458333,33.68095,86.529736)"
       id="text1041"
       style="font-size:0.453543px;line-height:1.25;font-family:sans-serif;-inkscape-font-specification:'sans-serif, Normal';text-align:center;text-decoration:none;text-decoration-line:none;text-decoration-color:#000000;white-space:pre;shape-inside:url(#rect1043);fill:#000000;stop-color:#000000" />
  </g>
</svg>
