<?xml version="1.0" encoding="UTF-8" standalone="no"?>
<svg
   width="68.070747mm"
   height="7.8115878mm"
   viewBox="0 0 68.070748 7.811588"
   version="1.1"
   id="svg884"
   inkscape:version="1.2.2 (b0a8486541, 2022-12-01)"
   sodipodi:docname="internal-use-only.svg"
   xmlns:inkscape="http://www.inkscape.org/namespaces/inkscape"
   xmlns:sodipodi="http://sodipodi.sourceforge.net/DTD/sodipodi-0.dtd"
   xmlns="http://www.w3.org/2000/svg"
   xmlns:svg="http://www.w3.org/2000/svg"
   xmlns:rdf="http://www.w3.org/1999/02/22-rdf-syntax-ns#"
   xmlns:cc="http://creativecommons.org/ns#"
   xmlns:dc="http://purl.org/dc/elements/1.1/">
  <defs
     id="defs878">
    <rect
       x="-19.060181"
       y="-45.413284"
       width="271.78784"
       height="116.92299"
       id="rect1043" />
  </defs>
  <sodipodi:namedview
     id="base"
     pagecolor="#ffffff"
     bordercolor="#666666"
     borderopacity="1.0"
     inkscape:pageopacity="0.0"
     inkscape:pageshadow="2"
     inkscape:zoom="2"
     inkscape:cx="272.5"
     inkscape:cy="44"
     inkscape:document-units="mm"
     inkscape:current-layer="text1433"
     showgrid="false"
     inkscape:window-width="1916"
     inkscape:window-height="510"
     inkscape:window-x="1366"
     inkscape:window-y="530"
     inkscape:window-maximized="0"
     inkscape:document-rotation="0"
     inkscape:showpageshadow="2"
     inkscape:pagecheckerboard="0"
     inkscape:deskcolor="#d1d1d1" />
  <metadata
     id="metadata881">
    <rdf:RDF>
      <cc:Work
         rdf:about="">
        <dc:format>image/svg+xml</dc:format>
        <dc:type
           rdf:resource="http://purl.org/dc/dcmitype/StillImage" />
        <dc:title />
      </cc:Work>
    </rdf:RDF>
  </metadata>
  <g
     inkscape:label="レイヤー 1"
     inkscape:groupmode="layer"
     id="layer1"
     transform="translate(18.770758,-91.18679)">
    <g
       aria-label="Internal use only"
       id="text1433"
       style="font-weight:bold;font-size:6.35px;line-height:125%;font-family:'M+ 1p';-inkscape-font-specification:'M+ 1p, Bold';letter-spacing:0px;word-spacing:0px;fill:#ff0000;stroke-width:0.264583px">
      <g
         id="g2349">
        <g
           aria-label="Internal use only"
           id="text256"
           style="font-style:italic;font-size:7.05556px;line-height:1.25;font-family:sans-serif;-inkscape-font-specification:'sans-serif, Bold Italic';font-variant-ligatures:none;text-align:center;text-anchor:middle;stroke-width:0.0700042px;stop-color:#000000">
          <path
             d="m -17.376267,91.833337 -0.999078,5.143531 h 1.326363 l 0.999078,-5.143531 z"
             id="path258" />
          <path
             d="m -12.518679,93.025341 c -0.513319,0 -0.961182,0.217041 -1.41249,0.658013 l 0.110243,-0.564996 h -1.233345 l -0.751031,3.85851 h 1.233345 l 0.368625,-1.898249 c 0.124024,-0.637343 0.475424,-1.123102 1.043865,-1.123102 0.33762,0 0.447863,0.16881 0.447863,0.471978 0,0.196371 -0.04823,0.447863 -0.106798,0.751032 l -0.347955,1.798341 h 1.240235 l 0.458198,-2.349557 c 0.03445,-0.186035 0.05512,-0.35829 0.05512,-0.51332 0,-0.682129 -0.34451,-1.08865 -1.105877,-1.08865 z"
             id="path260" />
          <path
             d="m -9.3285182,96.976868 h 1.057645 l 0.1722549,-0.881945 h -0.633898 c -0.3307294,0 -0.4616431,-0.06546 -0.4616431,-0.279053 0,-0.05168 0.00689,-0.110243 0.020671,-0.179145 l 0.316949,-1.636422 h 1.2712411 l 0.1722548,-0.881945 h -1.271241 l 0.213596,-1.095541 h -1.2333449 l -0.2135961,1.095541 h -0.6132275 l -0.172255,0.881945 h 0.613227 l -0.316949,1.636422 c -0.03445,0.18259 -0.05512,0.341064 -0.05512,0.482313 0,0.620118 0.35829,0.85783 1.1334372,0.85783 z"
             id="path262" />
          <path
             d="m -7.3751472,95.557487 c 0,0.988743 0.6786842,1.519289 1.8637979,1.519289 0.6993548,0 1.3332528,-0.165365 1.8155664,-0.334175 l 0.1860353,-0.950847 c -0.4409725,0.217041 -1.0714254,0.465088 -1.7259939,0.465088 -0.7544764,0 -0.9026156,-0.396186 -0.9026156,-0.740696 0,-0.04479 0.00345,-0.08613 0.00689,-0.127468 h 2.8835467 l 0.065457,-0.3514 c 0.034451,-0.1757 0.051677,-0.341065 0.051677,-0.492649 0,-0.954292 -0.6304529,-1.519288 -1.6605371,-1.519288 -1.832792,0 -2.5838233,1.388374 -2.5838237,2.532146 z m 3.0075703,-0.930176 h -1.6019704 c 0.1584745,-0.475423 0.5064293,-0.782037 1.0128587,-0.782037 0.3824058,0 0.6063372,0.227376 0.6063372,0.592557 0,0.05857 -0.00345,0.124023 -0.017226,0.18948 z"
             id="path264" />
          <path
             d="m -0.76400525,93.752256 0.12402352,-0.633898 H -1.8733267 l -0.7510313,3.85851 h 1.233345 l 0.3445097,-1.777671 c 0.14124904,-0.71658 0.54777057,-1.178223 1.21956463,-1.178223 0.19292547,0 0.39963133,0.0379 0.60978229,0.148139 l 0.21704116,-1.116212 c -0.19981567,-0.02412 -0.26871762,-0.02756 -0.33761958,-0.02756 -0.66490386,0 -1.08176068,0.306613 -1.42627045,0.726915 z"
             id="path266" />
          <path
             d="m 4.1418146,93.025341 c -0.5133195,0 -0.9611823,0.217041 -1.4124901,0.658013 l 0.1102432,-0.564996 h -1.233345 l -0.75103131,3.85851 H 2.0885364 l 0.3686254,-1.898249 c 0.1240235,-0.637343 0.4754235,-1.123102 1.0438646,-1.123102 0.3376196,0 0.4478627,0.16881 0.4478627,0.471978 0,0.196371 -0.048231,0.447863 -0.106798,0.751032 l -0.3479549,1.798341 h 1.2402352 l 0.458198,-2.349557 c 0.034451,-0.186035 0.055122,-0.35829 0.055122,-0.51332 0,-0.682129 -0.3445098,-1.08865 -1.1058768,-1.08865 z"
             id="path268" />
          <path
             d="m 7.9452011,95.240538 h 0.6407882 l -0.027561,0.141249 c -0.099908,0.509875 -0.5270999,0.875055 -0.9921881,0.875055 -0.3100588,0 -0.5064294,-0.130913 -0.5064294,-0.385851 0,-0.251492 0.141249,-0.630453 0.8853903,-0.630453 z m 0.3445098,-2.215197 c -0.4375274,0 -0.9852979,0.04479 -1.6329763,0.19637 l -0.1825902,0.940512 c 0.4099667,-0.199816 0.8784999,-0.316949 1.4331607,-0.316949 0.6407881,0 0.8543842,0.172255 0.8543842,0.440972 0,0.04134 -0.00689,0.08268 -0.01378,0.124024 l -0.020671,0.09646 H 8.0003227 c -1.4882822,0 -2.0326076,0.523654 -2.187637,1.312582 -0.017226,0.09646 -0.027561,0.186035 -0.027561,0.272163 0,0.599447 0.4271921,0.985298 1.129992,0.985298 0.6717941,0 1.0852058,-0.272163 1.443496,-0.671795 l -0.110243,0.57189 H 9.49205 L 9.9192421,94.77545 c 0.037896,-0.199815 0.058567,-0.378961 0.058567,-0.54088 0,-0.88539 -0.5822215,-1.209229 -1.6880982,-1.209229 z"
             id="path270" />
          <path
             d="m 11.679688,91.616296 -1.04042,5.360572 h 1.233345 l 1.04042,-5.360572 z"
             id="path272" />
          <path
             d="m 16.819775,97.076776 c 0.509875,0 0.961182,-0.220487 1.4056,-0.658014 l -0.106798,0.558106 h 1.233345 l 0.751031,-3.85851 h -1.233345 l -0.37207,1.905139 c -0.124024,0.637343 -0.475424,1.119657 -1.043865,1.119657 -0.334174,0 -0.430637,-0.230822 -0.430637,-0.53399 0,-0.213596 0.04479,-0.458198 0.08957,-0.685575 l 0.3514,-1.805231 h -1.240235 l -0.458198,2.356447 c -0.03445,0.186035 -0.05512,0.35829 -0.05512,0.516765 0,0.682129 0.347955,1.085206 1.109321,1.085206 z"
             id="path274" />
          <path
             d="m 22.052875,96.256842 c -0.606337,0 -1.092096,-0.151584 -1.474502,-0.35829 l -0.18259,0.937067 c 0.372071,0.110243 0.930177,0.241157 1.5813,0.241157 1.788006,0 2.091174,-0.947402 2.091174,-1.577855 0,-0.523655 -0.354845,-0.764812 -1.395264,-0.919841 l -0.210151,-0.03101 c -0.368626,-0.05512 -0.53399,-0.120579 -0.53399,-0.289388 0,-0.165365 0.113688,-0.413412 0.771702,-0.413412 0.54777,0 1.047309,0.172255 1.395264,0.330729 l 0.18259,-0.937066 c -0.713135,-0.186036 -1.185113,-0.213596 -1.491727,-0.213596 -1.364259,0 -1.974041,0.582221 -1.974041,1.505507 0,0.620118 0.482314,0.826824 1.278131,0.930177 l 0.210151,0.02756 c 0.416857,0.05168 0.561551,0.127469 0.561551,0.296279 0,0.18948 -0.110243,0.471978 -0.809598,0.471978 z"
             id="path276" />
          <path
             d="m 24.771061,95.557487 c 0,0.988743 0.678684,1.519289 1.863797,1.519289 0.699355,0 1.333253,-0.165365 1.815567,-0.334175 l 0.186035,-0.950847 c -0.440972,0.217041 -1.071425,0.465088 -1.725994,0.465088 -0.754476,0 -0.902615,-0.396186 -0.902615,-0.740696 0,-0.04479 0.0034,-0.08613 0.0069,-0.127468 h 2.883547 l 0.06546,-0.3514 c 0.03445,-0.1757 0.05168,-0.341065 0.05168,-0.492649 0,-0.954292 -0.630453,-1.519288 -1.660537,-1.519288 -1.832792,0 -2.583823,1.388374 -2.583823,2.532146 z m 3.00757,-0.930176 H 26.17666 c 0.158475,-0.475423 0.50643,-0.782037 1.012859,-0.782037 0.382406,0 0.606337,0.227376 0.606337,0.592557 0,0.05857 -0.0034,0.124023 -0.01722,0.18948 z"
             id="path278" />
          <path
             d="m 33.966023,96.19483 c -0.471978,0 -0.661458,-0.296278 -0.661458,-0.73725 0,-0.475424 0.223931,-1.550294 1.105876,-1.550294 0.465088,0 0.654569,0.296278 0.654569,0.737251 0,0.465088 -0.220487,1.550293 -1.098987,1.550293 z m -1.95337,-0.637343 c 0,0.968073 0.637343,1.519289 1.781116,1.519289 2.049833,0 2.563152,-1.674318 2.563152,-2.535592 0,-0.964628 -0.633898,-1.515843 -1.774225,-1.515843 -1.898249,0 -2.570043,1.471056 -2.570043,2.532146 z"
             id="path280" />
          <path
             d="m 40.112077,93.025341 c -0.513319,0 -0.961182,0.217041 -1.41249,0.658013 l 0.110243,-0.564996 h -1.233345 l -0.751031,3.85851 h 1.233345 l 0.368625,-1.898249 c 0.124024,-0.637343 0.475424,-1.123102 1.043865,-1.123102 0.33762,0 0.447863,0.16881 0.447863,0.471978 0,0.196371 -0.04823,0.447863 -0.106798,0.751032 l -0.347955,1.798341 h 1.240235 l 0.458198,-2.349557 c 0.03445,-0.186035 0.05512,-0.35829 0.05512,-0.51332 0,-0.682129 -0.34451,-1.08865 -1.105877,-1.08865 z"
             id="path282" />
          <path
             d="m 42.888826,91.616296 -1.040419,5.360572 h 1.233345 l 1.040419,-5.360572 z"
             id="path284" />
          <path
             d="m 44.51147,93.118358 0.940511,4.006649 -0.05512,0.106798 c -0.1757,0.34451 -0.354845,0.458198 -0.768257,0.458198 h -0.385851 l -0.158474,0.809598 h 0.713135 c 0.857829,0 1.274686,-0.492649 1.653647,-1.157553 l 2.446019,-4.22369 h -1.233345 l -1.391819,2.618274 -0.5271,-2.618274 z"
             id="path286" />
        </g>
        <rect
           style="opacity:1;fill:none;fill-opacity:1;stroke:#ff0000;stroke-width:0.25;stroke-linejoin:round;stroke-dasharray:none;stroke-opacity:1"
           id="rect6277"
           width="67.820747"
           height="7.5615878"
           x="-18.645758"
           y="91.31179" />
      </g>
    </g>
    <text
       xml:space="preserve"
       transform="matrix(0.26458333,0,0,0.26458333,33.68095,86.529736)"
       id="text1041"
       style="font-size:0.453543px;line-height:1.25;font-family:sans-serif;-inkscape-font-specification:'sans-serif, Normal';text-align:center;text-decoration:none;text-decoration-line:none;text-decoration-color:#000000;white-space:pre;shape-inside:url(#rect1043);fill:#000000;stop-color:#000000" />
  </g>
</svg>
