<?xml version="1.0" encoding="UTF-8" standalone="no"?>
<svg
   width="24.648691mm"
   height="6.3453002mm"
   viewBox="0 0 24.648691 6.3453003"
   version="1.1"
   id="svg884"
   inkscape:version="1.2.2 (b0a8486541, 2022-12-01)"
   sodipodi:docname="public.svg"
   xmlns:inkscape="http://www.inkscape.org/namespaces/inkscape"
   xmlns:sodipodi="http://sodipodi.sourceforge.net/DTD/sodipodi-0.dtd"
   xmlns="http://www.w3.org/2000/svg"
   xmlns:svg="http://www.w3.org/2000/svg"
   xmlns:rdf="http://www.w3.org/1999/02/22-rdf-syntax-ns#"
   xmlns:cc="http://creativecommons.org/ns#"
   xmlns:dc="http://purl.org/dc/elements/1.1/">
  <defs
     id="defs878" />
  <sodipodi:namedview
     id="base"
     pagecolor="#ffffff"
     bordercolor="#666666"
     borderopacity="1.0"
     inkscape:pageopacity="0.0"
     inkscape:pageshadow="2"
     inkscape:zoom="3.99"
     inkscape:cx="61.403509"
     inkscape:cy="30.075188"
     inkscape:document-units="mm"
     inkscape:current-layer="layer1"
     showgrid="false"
     inkscape:window-width="1916"
     inkscape:window-height="510"
     inkscape:window-x="1366"
     inkscape:window-y="0"
     inkscape:window-maximized="1"
     inkscape:document-rotation="0"
     inkscape:showpageshadow="2"
     inkscape:pagecheckerboard="0"
     inkscape:deskcolor="#d1d1d1" />
  <metadata
     id="metadata881">
    <rdf:RDF>
      <cc:Work
         rdf:about="">
        <dc:format>image/svg+xml</dc:format>
        <dc:type
           rdf:resource="http://purl.org/dc/dcmitype/StillImage" />
        <dc:title />
      </cc:Work>
    </rdf:RDF>
  </metadata>
  <g
     inkscape:label="レイヤー 1"
     inkscape:groupmode="layer"
     id="layer1"
     transform="translate(-6.5865412,-72.23864)">
    <g
       id="g6161">
      <g
         aria-label="Public"
         id="text235"
         style="font-style:italic;font-weight:bold;font-size:7.05556px;line-height:1.25;-inkscape-font-specification:'sans-serif, Bold Italic';font-variant-ligatures:none;text-align:center;text-anchor:middle;fill:#0000ff;stroke-width:0.264583;stop-color:#000000">
        <path
           d="m 11.917712,74.12149 c 0,-0.875055 -0.671794,-1.281577 -1.75011,-1.281577 H 7.9661848 l -0.9990783,5.143531 h 1.3263626 l 0.3479549,-1.78456 h 0.8750548 c 1.9533702,0 2.4012332,-1.316028 2.4012332,-2.077394 z M 9.5612651,75.237701 H 8.8274593 L 9.1065122,73.801096 H 9.840318 c 0.434082,0 0.685574,0.18259 0.685574,0.54088 0,0.330729 -0.192925,0.895725 -0.9646269,0.895725 z"
           id="path287" />
        <path
           d="m 13.388769,78.083352 c 0.509874,0 0.961182,-0.220486 1.405599,-0.658014 l -0.106798,0.558106 h 1.233345 l 0.751032,-3.858509 h -1.233345 l -0.372071,1.905139 c -0.124023,0.637343 -0.475423,1.119657 -1.043864,1.119657 -0.334175,0 -0.430638,-0.230822 -0.430638,-0.533991 0,-0.213596 0.04479,-0.458198 0.08957,-0.685574 l 0.3514,-1.805231 h -1.240235 l -0.458198,2.356447 c -0.03445,0.186035 -0.05512,0.35829 -0.05512,0.516764 0,0.68213 0.347955,1.085206 1.109323,1.085206 z"
           id="path289" />
        <path
           d="m 19.751864,74.927643 c 0.458198,0 0.640788,0.289388 0.640788,0.720025 0,0.471978 -0.217041,1.539959 -1.078315,1.539959 -0.458198,0 -0.644234,-0.292834 -0.644234,-0.726916 0,-0.461643 0.217042,-1.533068 1.081761,-1.533068 z m 1.92581,0.582221 c 0,-0.881945 -0.471979,-1.477947 -1.291912,-1.477947 -0.627008,0 -1.0542,0.289388 -1.4056,0.658014 l 0.399632,-2.067059 h -1.233345 l -1.04042,5.360572 h 1.233345 l 0.106798,-0.558106 c 0.210151,0.372071 0.5271,0.658014 1.150663,0.658014 1.25057,0 2.080839,-1.353923 2.080839,-2.573488 z"
           id="path291" />
        <path
           d="m 23.196962,72.622872 -1.04042,5.360572 h 1.233345 l 1.04042,-5.360572 z"
           id="path293" />
        <path
           d="M 25.326032,74.124935 24.575,77.983444 h 1.233345 l 0.751032,-3.858509 z m 0.289388,-1.502063 -0.192926,1.005969 h 1.233345 l 0.192926,-1.005969 z"
           id="path295" />
        <path
           d="m 27.02791,76.553729 c 0,0.988743 0.692465,1.529623 1.877578,1.529623 0.475424,0 0.899171,-0.09991 1.226455,-0.213596 l 0.196371,-1.009414 c -0.375516,0.248047 -0.761367,0.341065 -1.095541,0.341065 -0.585667,0 -0.902616,-0.299723 -0.902616,-0.826823 0,-0.492649 0.268718,-1.460722 1.347033,-1.460722 0.434083,0 0.737251,0.158475 0.964628,0.33762 l 0.19637,-1.005969 c -0.285943,-0.110243 -0.668349,-0.213596 -1.143772,-0.213596 -2.11529,0 -2.666506,1.622641 -2.666506,2.521812 z"
           id="path297" />
      </g>
      <rect
         style="opacity:1;fill:none;stroke:#0000ff;stroke-width:0.25;stroke-linejoin:round;stroke-dasharray:none;stroke-opacity:1"
         id="rect116"
         width="24.398691"
         height="6.0953002"
         x="6.7115412"
         y="72.36364" />
    </g>
  </g>
</svg>
