<?xml version="1.0" encoding="UTF-8" standalone="no"?>
<!-- Generator: Adobe Illustrator 14.0.0, SVG Export Plug-In . SVG Version: 6.00 Build 43363)  -->

<svg
   id="_x30_"
   enable-background="new 0 0 840 594"
   xml:space="preserve"
   height="26.015699"
   viewBox="0 0 158.97598 24.389718"
   width="169.57079"
   version="1.1"
   y="0px"
   x="0px"
   inkscape:version="1.2.2 (b0a8486541, 2022-12-01)"
   sodipodi:docname="sample-logo.svg"
   xmlns:inkscape="http://www.inkscape.org/namespaces/inkscape"
   xmlns:sodipodi="http://sodipodi.sourceforge.net/DTD/sodipodi-0.dtd"
   xmlns="http://www.w3.org/2000/svg"
   xmlns:svg="http://www.w3.org/2000/svg"
   xmlns:rdf="http://www.w3.org/1999/02/22-rdf-syntax-ns#"
   xmlns:cc="http://creativecommons.org/ns#"
   xmlns:dc="http://purl.org/dc/elements/1.1/"><defs
     id="defs18" /><sodipodi:namedview
     pagecolor="#ffffff"
     bordercolor="#666666"
     borderopacity="1"
     objecttolerance="10"
     gridtolerance="10"
     guidetolerance="10"
     inkscape:pageopacity="0"
     inkscape:pageshadow="2"
     inkscape:window-width="1916"
     inkscape:window-height="1004"
     id="namedview16"
     showgrid="false"
     inkscape:zoom="4.8776456"
     inkscape:cx="80.571659"
     inkscape:cy="-18.041491"
     inkscape:window-x="1366"
     inkscape:window-y="54"
     inkscape:window-maximized="0"
     inkscape:current-layer="_x30_"
     inkscape:showpageshadow="2"
     inkscape:pagecheckerboard="0"
     inkscape:deskcolor="#d1d1d1" /><metadata
     id="metadata25"><rdf:RDF><cc:Work
         rdf:about=""><dc:format>image/svg+xml</dc:format><dc:type
           rdf:resource="http://purl.org/dc/dcmitype/StillImage" /><dc:title /></cc:Work></rdf:RDF></metadata><path
     id="path3018"
     d="M 35.185531,12.993727 V -0.81927296 h 4.8165 4.8165 v 13.81299996 13.813 h -4.8165 -4.8165 z"
     inkscape:connector-curvature="0"
     style="fill-opacity:0" /><path
     id="path3807"
     d="m 140.99953,19.587727 c -4.0086,-0.86031 -6.1754,-4.2866 -5.2589,-8.316 0.74799,-3.2887 3.7546,-5.1283 8.0543,-4.928 1.7695,0.08244 3.1246,0.39214 4.922,1.1249 0.64833,0.26432 1.1932,0.49816 1.2107,0.51963 0.0176,0.02147 0.0666,2.2456 0.10898,4.9425 l 0.077,4.9034 -0.77105,0.37816 c -2.9119,1.4281 -5.8445,1.9116 -8.3431,1.3754 z"
     inkscape:connector-curvature="0"
     style="fill:#ffffff;fill-rule:nonzero" /><path
     id="path3848"
     d="m 74.165531,13.042727 v -7.1816 l 2.0328,0.06371 c 2.2569,0.07073 3.095,0.28251 4.2425,1.072 1.6627,1.144 2.5223,3.5086 2.3726,6.5267 -0.09883,1.9923 -0.42231,3.228 -1.1148,4.2586 -1.1642,1.7326 -2.8652,2.4422 -5.8542,2.4422 h -1.6789 v -7.1816 z"
     inkscape:connector-curvature="0"
     style="fill:#ffffff;fill-rule:nonzero" /><text
     xml:space="preserve"
     style="font-style:italic;font-weight:bold;font-size:25.0006px;line-height:1.25;font-family:sans-serif;-inkscape-font-specification:'sans-serif, Bold Italic';font-variant-ligatures:none;text-align:center;text-decoration:none;text-decoration-line:none;text-decoration-color:#000000;text-anchor:middle;fill:#ff0000;stroke-width:0.93752;stop-color:#000000"
     x="78.120773"
     y="18.994083"
     id="text345"><tspan
       sodipodi:role="line"
       id="tspan343"
       style="fill:#ff0000;stroke-width:0.93752"
       x="78.120773"
       y="18.994083">Brand Logo</tspan></text></svg>
