<?xml version="1.0" encoding="UTF-8" standalone="no"?>
<svg
   width="67.740959mm"
   height="6.8833051mm"
   viewBox="0 0 67.74096 6.8833048"
   version="1.1"
   id="svg500"
   inkscape:version="1.2.2 (b0a8486541, 2022-12-01)"
   sodipodi:docname="sample-company-name.svg"
   xmlns:inkscape="http://www.inkscape.org/namespaces/inkscape"
   xmlns:sodipodi="http://sodipodi.sourceforge.net/DTD/sodipodi-0.dtd"
   xmlns="http://www.w3.org/2000/svg"
   xmlns:svg="http://www.w3.org/2000/svg"
   xmlns:rdf="http://www.w3.org/1999/02/22-rdf-syntax-ns#"
   xmlns:cc="http://creativecommons.org/ns#"
   xmlns:dc="http://purl.org/dc/elements/1.1/">
  <defs
     id="defs494" />
  <sodipodi:namedview
     id="base"
     pagecolor="#ffffff"
     bordercolor="#666666"
     borderopacity="1.0"
     inkscape:pageopacity="0.0"
     inkscape:pageshadow="2"
     inkscape:zoom="0.88"
     inkscape:cx="510.22727"
     inkscape:cy="148.86364"
     inkscape:document-units="mm"
     inkscape:current-layer="layer1"
     inkscape:document-rotation="0"
     showgrid="false"
     inkscape:window-width="1916"
     inkscape:window-height="1022"
     inkscape:window-x="1366"
     inkscape:window-y="36"
     inkscape:window-maximized="0"
     inkscape:showpageshadow="2"
     inkscape:pagecheckerboard="0"
     inkscape:deskcolor="#d1d1d1" />
  <metadata
     id="metadata497">
    <rdf:RDF>
      <cc:Work
         rdf:about="">
        <dc:format>image/svg+xml</dc:format>
        <dc:type
           rdf:resource="http://purl.org/dc/dcmitype/StillImage" />
        <dc:title />
      </cc:Work>
    </rdf:RDF>
  </metadata>
  <g
     inkscape:label="レイヤー 1"
     inkscape:groupmode="layer"
     id="layer1"
     transform="translate(28.855442,-108.83348)">
    <g
       aria-label="Sample company"
       id="text363"
       style="font-style:italic;font-weight:bold;font-size:7.05556px;line-height:1.25;-inkscape-font-specification:'sans-serif, Bold Italic';font-variant-ligatures:none;text-align:center;text-anchor:middle;stroke-width:0.264583;stop-color:#000000">
      <path
         d="m -28.28011,110.8902 c 0,0.66835 0.471978,0.98875 1.2299,1.16445 l 0.489204,0.11369 c 0.454752,0.10335 0.678684,0.21359 0.678684,0.48575 0,0.27217 -0.1757,0.67869 -1.016304,0.67869 -0.723471,0 -1.333253,-0.28939 -1.739774,-0.5271 l -0.217042,1.11966 c 0.68902,0.2756 1.329808,0.36862 1.894804,0.36862 1.901694,0 2.411569,-1.10587 2.411569,-2.04639 0,-0.65801 -0.447863,-0.97496 -1.322918,-1.15755 l -0.54088,-0.11369 c -0.413412,-0.0896 -0.620118,-0.19292 -0.620118,-0.42719 0,-0.25149 0.141249,-0.63045 1.043865,-0.63045 0.310059,0 0.847494,0.0551 1.515843,0.3824 l 0.210151,-1.08865 c -0.409967,-0.11713 -1.030085,-0.25493 -1.75011,-0.25493 -1.901694,0 -2.266874,1.31602 -2.266874,1.93269 z"
         id="path365" />
      <path
         d="m -21.717199,112.45772 h 0.640788 l -0.02756,0.14125 c -0.09991,0.50988 -0.5271,0.87506 -0.992188,0.87506 -0.310059,0 -0.506429,-0.13092 -0.506429,-0.38585 0,-0.25149 0.141249,-0.63046 0.88539,-0.63046 z m 0.34451,-2.21519 c -0.437528,0 -0.985298,0.0448 -1.632977,0.19637 l -0.18259,0.94051 c 0.409967,-0.19982 0.8785,-0.31695 1.433161,-0.31695 0.640788,0 0.854384,0.17225 0.854384,0.44097 0,0.0413 -0.0069,0.0827 -0.01378,0.12403 l -0.02067,0.0965 h -0.726916 c -1.488282,0 -2.032607,0.52365 -2.187637,1.31258 -0.01722,0.0965 -0.02756,0.18604 -0.02756,0.27216 0,0.59945 0.427192,0.9853 1.129992,0.9853 0.671794,0 1.085205,-0.27216 1.443496,-0.67179 l -0.110243,0.57188 h 1.24368 l 0.427192,-2.20141 c 0.0379,-0.19982 0.05857,-0.37896 0.05857,-0.54088 0,-0.88539 -0.582222,-1.20923 -1.688098,-1.20923 z"
         id="path367" />
      <path
         d="m -15.850198,110.24253 c -0.265273,0 -0.771702,0.062 -1.298802,0.65801 l 0.110243,-0.565 h -1.240235 l -0.751031,3.85851 h 1.240235 l 0.368625,-1.89825 c 0.120579,-0.61322 0.413412,-1.1231 0.957738,-1.1231 0.275607,0 0.38585,0.11369 0.38585,0.40997 0,0.15158 -0.02756,0.34795 -0.07579,0.59945 l -0.392741,2.01193 h 1.240235 l 0.368626,-1.8948 c 0.186035,-0.95774 0.661459,-1.12655 0.957737,-1.12655 0.223931,0 0.372071,0.0861 0.372071,0.46854 0,0.1378 -0.02067,0.31695 -0.06201,0.54088 l -0.392741,2.01193 h 1.240235 l 0.458198,-2.34955 c 0.0379,-0.18604 0.05512,-0.35829 0.05512,-0.51677 0,-0.68213 -0.347955,-1.0852 -1.105876,-1.0852 -0.606337,0 -1.078316,0.34795 -1.4056,0.7338 -0.113688,-0.43063 -0.454753,-0.7338 -1.030084,-0.7338 z"
         id="path369" />
      <path
         d="m -7.0996494,111.72047 c 0,-0.88194 -0.4719784,-1.47794 -1.2919116,-1.47794 -0.6270078,0 -1.0541999,0.28938 -1.4055999,0.65801 l 0.1102432,-0.565 h -1.2333453 l -1.036974,5.32613 h 1.233345 l 0.392741,-2.02572 c 0.210151,0.37207 0.5270999,0.65801 1.1506626,0.65801 1.2505705,0 2.080839,-1.35392 2.080839,-2.57349 z m -2.363337,1.67777 c -0.458198,0 -0.6442336,-0.29284 -0.6442336,-0.72692 0,-0.46164 0.2170415,-1.53307 1.081761,-1.53307 0.458198,0 0.6407882,0.28939 0.6407882,0.72003 0,0.47198 -0.2170412,1.53996 -1.0783156,1.53996 z"
         id="path371" />
      <path
         d="m -5.5803622,108.83348 -1.0404195,5.36057 h 1.233345 l 1.0404195,-5.36057 z"
         id="path373" />
      <path
         d="m -4.1678718,112.77467 c 0,0.98875 0.6786843,1.51929 1.8637979,1.51929 0.6993548,0 1.33325278,-0.16536 1.81556646,-0.33417 l 0.18603527,-0.95085 c -0.4409725,0.21704 -1.07142543,0.46509 -1.72599393,0.46509 -0.7544764,0 -0.9026156,-0.39619 -0.9026156,-0.7407 0,-0.0448 0.00345,-0.0861 0.00689,-0.12747 h 2.88354676 l 0.06545686,-0.3514 c 0.03445097,-0.1757 0.05167646,-0.34106 0.05167646,-0.49265 0,-0.95429 -0.63045288,-1.51928 -1.66053708,-1.51928 -1.832792,0 -2.5838233,1.38837 -2.5838233,2.53214 z m 3.0075703,-0.93017 h -1.6019704 c 0.1584745,-0.47543 0.5064293,-0.78204 1.0128587,-0.78204 0.3824058,0 0.6063372,0.22738 0.6063372,0.59256 0,0.0586 -0.00345,0.12402 -0.017226,0.18948 z"
         id="path375" />
      <path
         d="m 3.0737244,112.76434 c 0,0.98874 0.6924647,1.52962 1.8775783,1.52962 0.4754235,0 0.8991705,-0.0999 1.2264548,-0.21359 l 0.1963705,-1.00942 c -0.3755156,0.24805 -0.7613666,0.34107 -1.095541,0.34107 -0.5856667,0 -0.9026156,-0.29973 -0.9026156,-0.82683 0,-0.49265 0.2687176,-1.46072 1.3470332,-1.46072 0.4340823,0 0.7372509,0.15848 0.9646273,0.33762 l 0.1963706,-1.00597 c -0.2859431,-0.11024 -0.668349,-0.21359 -1.1437724,-0.21359 -2.11529,0 -2.6665057,1.62264 -2.6665057,2.52181 z"
         id="path377" />
      <path
         d="m 9.2094431,113.41202 c -0.4719784,0 -0.6614588,-0.29628 -0.6614588,-0.73725 0,-0.47543 0.2239314,-1.5503 1.1058764,-1.5503 0.4650883,0 0.6545683,0.29628 0.6545683,0.73725 0,0.46509 -0.220486,1.5503 -1.0989859,1.5503 z m -1.9533704,-0.63735 c 0,0.96808 0.6373431,1.51929 1.7811155,1.51929 2.0498328,0 2.5631528,-1.67432 2.5631528,-2.53559 0,-0.96463 -0.633898,-1.51584 -1.7742254,-1.51584 -1.8982489,0 -2.5700429,1.47105 -2.5700429,2.53214 z"
         id="path379" />
      <path
         d="m 15.241809,110.24253 c -0.265273,0 -0.771702,0.062 -1.298802,0.65801 l 0.110243,-0.565 h -1.240235 l -0.751032,3.85851 h 1.240236 l 0.368625,-1.89825 c 0.120578,-0.61322 0.413412,-1.1231 0.957737,-1.1231 0.275608,0 0.385851,0.11369 0.385851,0.40997 0,0.15158 -0.02756,0.34795 -0.07579,0.59945 l -0.392741,2.01193 h 1.240235 l 0.368625,-1.8948 c 0.186036,-0.95774 0.661459,-1.12655 0.957738,-1.12655 0.223931,0 0.37207,0.0861 0.37207,0.46854 0,0.1378 -0.02067,0.31695 -0.06201,0.54088 l -0.392741,2.01193 h 1.240235 l 0.458198,-2.34955 c 0.0379,-0.18604 0.05512,-0.35829 0.05512,-0.51677 0,-0.68213 -0.347955,-1.0852 -1.105876,-1.0852 -0.606338,0 -1.078316,0.34795 -1.4056,0.7338 -0.113688,-0.43063 -0.454753,-0.7338 -1.030084,-0.7338 z"
         id="path381" />
      <path
         d="m 23.992359,111.72047 c 0,-0.88194 -0.471978,-1.47794 -1.291911,-1.47794 -0.627008,0 -1.0542,0.28938 -1.4056,0.65801 l 0.110243,-0.565 h -1.233345 l -1.036975,5.32613 h 1.233345 l 0.392742,-2.02572 c 0.210151,0.37207 0.5271,0.65801 1.150662,0.65801 1.250571,0 2.080839,-1.35392 2.080839,-2.57349 z m -2.363337,1.67777 c -0.458198,0 -0.644233,-0.29284 -0.644233,-0.72692 0,-0.46164 0.217041,-1.53307 1.081761,-1.53307 0.458198,0 0.640788,0.28939 0.640788,0.72003 0,0.47198 -0.217041,1.53996 -1.078316,1.53996 z"
         id="path383" />
      <path
         d="m 26.538284,112.45772 h 0.640788 l -0.02756,0.14125 c -0.09991,0.50988 -0.5271,0.87506 -0.992188,0.87506 -0.310059,0 -0.50643,-0.13092 -0.50643,-0.38585 0,-0.25149 0.141249,-0.63046 0.885391,-0.63046 z m 0.344509,-2.21519 c -0.437527,0 -0.985298,0.0448 -1.632976,0.19637 l -0.18259,0.94051 c 0.409967,-0.19982 0.8785,-0.31695 1.433161,-0.31695 0.640788,0 0.854384,0.17225 0.854384,0.44097 0,0.0413 -0.0069,0.0827 -0.01378,0.12403 l -0.02067,0.0965 h -0.726916 c -1.488282,0 -2.032607,0.52365 -2.187637,1.31258 -0.01722,0.0965 -0.02756,0.18604 -0.02756,0.27216 0,0.59945 0.427192,0.9853 1.129992,0.9853 0.671794,0 1.085206,-0.27216 1.443496,-0.67179 l -0.110243,0.57188 h 1.24368 l 0.427193,-2.20141 c 0.0379,-0.19982 0.05857,-0.37896 0.05857,-0.54088 0,-0.88539 -0.582221,-1.20923 -1.688098,-1.20923 z"
         id="path385" />
      <path
         d="m 32.518976,110.24253 c -0.51332,0 -0.961183,0.21704 -1.41249,0.65801 l 0.110243,-0.565 h -1.233345 l -0.751032,3.85851 h 1.233345 l 0.368626,-1.89825 c 0.124023,-0.63734 0.475423,-1.1231 1.043864,-1.1231 0.33762,0 0.447863,0.16881 0.447863,0.47198 0,0.19637 -0.04823,0.44786 -0.106798,0.75103 l -0.347955,1.79834 h 1.240235 l 0.458198,-2.34955 c 0.03445,-0.18604 0.05512,-0.35829 0.05512,-0.51332 0,-0.68213 -0.34451,-1.08865 -1.105876,-1.08865 z"
         id="path387" />
      <path
         d="m 34.499907,110.33554 0.940512,4.00665 -0.05512,0.1068 c -0.1757,0.34451 -0.354846,0.4582 -0.768257,0.4582 H 34.23119 l -0.158475,0.8096 h 0.713136 c 0.857829,0 1.274686,-0.49265 1.653646,-1.15756 l 2.44602,-4.22369 h -1.233345 l -1.39182,2.61828 -0.5271,-2.61828 z"
         id="path389" />
    </g>
  </g>
</svg>
